# xmcd
# 
# Track frame offsets:
#     150
#     18385
#     38303
#     57635
#     77098
#     98051
#     115209
#     135518
#     152133
#     173213
#     190091
#     210400
#     231083
#     250855
#     268178
#     282292
#     301416
# 
# Disc length: 4246
# 
# Revision: 0
# Processed by: cddbd v1.5.2PL0 Copyright (c) Steve Scherf et al.
# Submitted via: BonkEnc v1.0.6
# 
DISCID=e0109411
DTITLE=Laura Pausini - Lo Mejor De Laura Pausini Volvere Junto A Ti
DYEAR=2001
DGENRE=Pop
TTITLE0=Desconhecido1
TTITLE1=Desconhecido2
TTITLE2=Desconhecido3
TTITLE3=Desconhecido4
TTITLE4=Desconhecido5
TTITLE5=Desconhecido6
TTITLE6=Desconhecido7
TTITLE7=Desconhecido8
TTITLE8=Desconhecido9
TTITLE9=Desconhecido10
TTITLE10=Desconhecido11
TTITLE11=Desconhecido12
TTITLE12=Desconhecido13
TTITLE13=Desconhecido14
TTITLE14=Desconhecido15
TTITLE15=Desconhecido16
TTITLE16=Desconhecido17
EXTD=ID3G:  12
EXTT0=
EXTT1=
EXTT2=
EXTT3=
EXTT4=
EXTT5=
EXTT6=
EXTT7=
EXTT8=
EXTT9=
EXTT10=
EXTT11=
EXTT12=
EXTT13=
EXTT14=
EXTT15=
EXTT16=
PLAYORDER=
